<svg width="16" height="16" viewBox="0 0 16 16" fill="none" xmlns="http://www.w3.org/2000/svg">
<g clip-path="url(#clip0_639_7014)">
<path d="M4.81804 3.75739C4.52515 3.4645 4.05027 3.4645 3.75738 3.75739C3.46449 4.05029 3.46449 4.52516 3.75738 4.81805L6.93936 8.00003L3.75741 11.182C3.46452 11.4749 3.46452 11.9497 3.75741 12.2426C4.0503 12.5355 4.52518 12.5355 4.81807 12.2426L8.00002 9.06069L11.182 12.2427C11.4749 12.5356 11.9498 12.5356 12.2427 12.2427C12.5356 11.9498 12.5356 11.4749 12.2427 11.182L9.06068 8.00003L12.2427 4.81802C12.5356 4.52512 12.5356 4.05025 12.2427 3.75736C11.9498 3.46446 11.4749 3.46446 11.182 3.75736L8.00002 6.93937L4.81804 3.75739Z" fill="#EF5466"/>
</g>
<defs>
<clipPath id="clip0_639_7014">
<rect width="16" height="16" fill="white"/>
</clipPath>
</defs>
</svg>
